<?xml version="1.0" standalone="no"?>
<!DOCTYPE svg PUBLIC "-//W3C//DTD SVG 20010904//EN"
 "http://www.w3.org/TR/2001/REC-SVG-20010904/DTD/svg10.dtd">
<svg version="1.0" xmlns="http://www.w3.org/2000/svg"
 width="260.000000pt" height="260.000000pt" viewBox="0 0 260.000000 260.000000"
 preserveAspectRatio="xMidYMid meet">
<metadata>
Created by potrace 1.11, written by Peter Selinger 2001-2013
</metadata>
<g transform="translate(0.000000,260.000000) scale(0.100000,-0.100000)"
fill="#000000" stroke="none">
<path d="M640 2523 c-158 -22 -295 -113 -355 -238 -27 -55 -30 -70 -30 -165 0
-92 3 -112 26 -160 42 -90 121 -156 239 -201 28 -10 120 -37 205 -58 164 -42
243 -77 272 -120 37 -55 19 -165 -34 -213 -84 -77 -291 -80 -397 -7 -62 42
-105 137 -106 231 l0 37 -131 0 -130 0 2 -68 c6 -215 114 -375 302 -445 84
-32 113 -37 243 -41 321 -10 528 157 533 430 3 150 -57 258 -186 333 -50 30
-207 85 -268 95 -57 9 -170 40 -210 58 -121 52 -142 171 -45 253 39 32 98 49
174 48 81 0 138 -18 184 -58 46 -39 60 -68 70 -149 l7 -60 115 -1 c63 0 120 2
127 4 16 5 8 138 -13 199 -49 147 -175 251 -348 287 -63 13 -184 17 -246 9z"/>
<path d="M1485 1803 l0 -698 456 -3 456 -2 1 119 c0 84 -3 121 -11 123 -7 2
-153 4 -324 3 l-313 0 0 577 0 578 -133 0 -132 0 0 -697z"/>
<path d="M740 813 l0 -178 -36 38 c-52 54 -89 70 -169 73 -61 3 -76 -1 -126
-27 -88 -47 -138 -118 -159 -227 -26 -130 9 -251 98 -337 57 -56 123 -80 202
-72 68 6 106 24 151 71 37 40 51 33 42 -21 l-6 -33 82 0 81 0 0 445 0 445 -80
0 -80 0 0 -177z m-119 -214 c92 -31 139 -139 109 -249 -13 -48 -75 -119 -106
-121 -11 -1 -32 -2 -49 -3 -107 -7 -184 89 -172 214 12 123 111 195 218 159z"/>
<path d="M1232 732 c-267 -96 -285 -499 -28 -622 37 -18 71 -24 130 -26 109
-4 182 24 249 97 l48 52 -63 38 c-35 21 -68 38 -74 39 -6 0 -16 -11 -23 -24
-18 -33 -81 -66 -126 -66 -20 0 -53 7 -72 16 -39 19 -83 78 -83 111 l0 22 213
0 c116 -1 221 0 231 0 17 1 18 7 13 80 -8 129 -62 218 -160 268 -69 35 -181
41 -255 15z m175 -139 c37 -17 73 -65 73 -95 0 -16 -14 -18 -145 -18 -100 0
-145 3 -145 11 0 6 10 29 22 50 35 63 123 87 195 52z"/>
<path d="M1695 713 c9 -24 106 -306 163 -476 l47 -137 120 0 120 0 47 138 c60
178 154 452 163 475 7 16 1 18 -81 15 l-88 -3 -24 -75 c-13 -41 -47 -149 -76
-240 -28 -91 -55 -164 -61 -163 -5 1 -29 64 -53 140 -24 76 -58 183 -76 238
l-33 100 -88 3 c-81 3 -87 1 -80 -15z"/>
</g>
</svg>
